<?xml version="1.0"?>
<svg>
  <text x="0" y="10" font-family="Arial" font-size="10">svg</text>
  <text x="0" y="30" font-family="Arial" font-size="10">rroonga</text>
  <text x="0" y="50" font-family="Arial" font-size="10">maps</text>
  <text x="20" y="70" font-family="Arial" font-size="10">tasks</text>
  <text x="20" y="90" font-family="Arial" font-size="10">bin</text>
  <text x="20" y="110" font-family="Arial" font-size="10">config</text>
  <text x="20" y="130" font-family="Arial" font-size="10">public</text>
  <text x="20" y="150" font-family="Arial" font-size="10">lib</text>
  <text x="20" y="170" font-family="Arial" font-size="10">db</text>
  <text x="20" y="190" font-family="Arial" font-size="10">views</text>
  <text x="0" y="210" font-family="Arial" font-size="10">state_machine_tests</text>
  <text x="0" y="230" font-family="Arial" font-size="10">scraping</text>
  <text x="20" y="250" font-family="Arial" font-size="10">pro_footbal</text>
  <text x="20" y="270" font-family="Arial" font-size="10">videos</text>
  <text x="0" y="290" font-family="Arial" font-size="10">rbac</text>
  <text x="20" y="310" font-family="Arial" font-size="10">app</text>
  <text x="20" y="330" font-family="Arial" font-size="10">bin</text>
  <text x="20" y="350" font-family="Arial" font-size="10">config</text>
  <text x="20" y="370" font-family="Arial" font-size="10">public</text>
  <text x="20" y="390" font-family="Arial" font-size="10">lib</text>
  <text x="20" y="410" font-family="Arial" font-size="10">db</text>
  <text x="20" y="430" font-family="Arial" font-size="10">log</text>
  <text x="20" y="450" font-family="Arial" font-size="10">vendor</text>
  <text x="0" y="470" font-family="Arial" font-size="10">rake_task_parameters</text>
  <text x="20" y="490" font-family="Arial" font-size="10">tasks</text>
  <text x="0" y="510" font-family="Arial" font-size="10">discovery_service</text>
  <text x="0" y="530" font-family="Arial" font-size="10">charting_tools</text>
  <text x="20" y="550" font-family="Arial" font-size="10">high_charts</text>
  <text x="0" y="570" font-family="Arial" font-size="10">myRubyBindings</text>
  <text x="20" y="590" font-family="Arial" font-size="10">geographic_lib_bindings</text>
  <text x="0" y="610" font-family="Arial" font-size="10">docker</text>
  <text x="20" y="630" font-family="Arial" font-size="10">Deploying Your Docker Rails App | via @codeship_files</text>
  <text x="20" y="650" font-family="Arial" font-size="10">kontena</text>
  <text x="0" y="670" font-family="Arial" font-size="10">tensor_flowish</text>
  <text x="0" y="690" font-family="Arial" font-size="10">class_level_metadata</text>
  <text x="20" y="710" font-family="Arial" font-size="10">tools</text>
  <text x="0" y="730" font-family="Arial" font-size="10">centralized_logging</text>
  <text x="20" y="750" font-family="Arial" font-size="10">elk_rails_sample</text>
  <text x="0" y="770" font-family="Arial" font-size="10">playing_with_git</text>
  <text x="0" y="790" font-family="Arial" font-size="10">multicast</text>
  <text x="0" y="810" font-family="Arial" font-size="10">ncurses</text>
  <text x="20" y="830" font-family="Arial" font-size="10">ffi-ncurses</text>
  <text x="0" y="850" font-family="Arial" font-size="10">ballistics</text>
  <text x="0" y="870" font-family="Arial" font-size="10">html5</text>
  <text x="0" y="890" font-family="Arial" font-size="10">playtime</text>
  <text x="20" y="910" font-family="Arial" font-size="10">lib</text>
  <text x="0" y="930" font-family="Arial" font-size="10">enigma</text>
  <text x="0" y="950" font-family="Arial" font-size="10">translation</text>
  <text x="0" y="970" font-family="Arial" font-size="10">mail</text>
  <text x="0" y="990" font-family="Arial" font-size="10">holidays</text>
  <text x="0" y="1010" font-family="Arial" font-size="10">avahi</text>
  <text x="0" y="1030" font-family="Arial" font-size="10">markov</text>
  <text x="0" y="1050" font-family="Arial" font-size="10">just_playing</text>
  <text x="20" y="1070" font-family="Arial" font-size="10">bin</text>
  <text x="0" y="1090" font-family="Arial" font-size="10">ruby_eventmachine</text>
  <text x="20" y="1110" font-family="Arial" font-size="10">more_tests</text>
  <text x="0" y="1130" font-family="Arial" font-size="10">wordnet_related</text>
  <text x="0" y="1150" font-family="Arial" font-size="10">rspec_playground</text>
  <text x="20" y="1170" font-family="Arial" font-size="10">autogen</text>
  <text x="0" y="1190" font-family="Arial" font-size="10">dijan_game</text>
  <text x="0" y="1210" font-family="Arial" font-size="10">rust</text>
  <text x="0" y="1230" font-family="Arial" font-size="10">entity_relationship_extraction_and_analsis</text>
  <text x="0" y="1250" font-family="Arial" font-size="10">ruby_threading</text>
  <text x="20" y="1270" font-family="Arial" font-size="10">network_connection_status</text>
  <text x="0" y="1290" font-family="Arial" font-size="10">junk</text>
  <text x="0" y="1310" font-family="Arial" font-size="10">amqp</text>
  <text x="20" y="1330" font-family="Arial" font-size="10">amqp_bunny</text>
  <text x="20" y="1350" font-family="Arial" font-size="10">bunny_farm</text>
  <text x="0" y="1370" font-family="Arial" font-size="10">sinatra_examples</text>
  <text x="20" y="1390" font-family="Arial" font-size="10">graphql_playground</text>
  <text x="0" y="1410" font-family="Arial" font-size="10">crystal</text>
  <text x="20" y="1430" font-family="Arial" font-size="10">ruby_compatibility</text>
  <text x="20" y="1450" font-family="Arial" font-size="10">simple_cli</text>
  <text x="20" y="1470" font-family="Arial" font-size="10">spinner_test</text>
  <text x="20" y="1490" font-family="Arial" font-size="10">interesting_shards</text>
  <text x="20" y="1510" font-family="Arial" font-size="10">hardware_test</text>
  <text x="20" y="1530" font-family="Arial" font-size="10">cr_ffi_rb</text>
  <text x="0" y="1550" font-family="Arial" font-size="10">stocks</text>
  <text x="20" y="1570" font-family="Arial" font-size="10">misc</text>
  <text x="20" y="1590" font-family="Arial" font-size="10">options_trading</text>
  <text x="20" y="1610" font-family="Arial" font-size="10">from_stock_gains</text>
  <text x="20" y="1630" font-family="Arial" font-size="10">alpha_vantage</text>
  <text x="20" y="1650" font-family="Arial" font-size="10">prompts</text>
  <text x="20" y="1670" font-family="Arial" font-size="10">misc_junk</text>
  <text x="0" y="1690" font-family="Arial" font-size="10">sqlite</text>
  <text x="0" y="1710" font-family="Arial" font-size="10">data_dictionary_from_ar_schema</text>
  <text x="0" y="1730" font-family="Arial" font-size="10">rethinkdb</text>
  <text x="20" y="1750" font-family="Arial" font-size="10">playing_with_rabbits</text>
  <text x="20" y="1770" font-family="Arial" font-size="10">ad_placement</text>
  <text x="20" y="1790" font-family="Arial" font-size="10">meditations_project</text>
  <text x="0" y="1810" font-family="Arial" font-size="10">google_vision</text>
  <text x="0" y="1830" font-family="Arial" font-size="10">playing_with_bookmarks</text>
  <text x="0" y="1850" font-family="Arial" font-size="10">virtual_machines</text>
  <text x="0" y="1870" font-family="Arial" font-size="10">method_overloading</text>
  <text x="0" y="1890" font-family="Arial" font-size="10">myJavaApp</text>
  <text x="20" y="1910" font-family="Arial" font-size="10">jars</text>
  <text x="20" y="1930" font-family="Arial" font-size="10">bin</text>
  <text x="20" y="1950" font-family="Arial" font-size="10">dist</text>
  <text x="20" y="1970" font-family="Arial" font-size="10">resources</text>
  <text x="20" y="1990" font-family="Arial" font-size="10">lib</text>
  <text x="20" y="2010" font-family="Arial" font-size="10">build</text>
  <text x="20" y="2030" font-family="Arial" font-size="10">myJavaApp.xcodeproj</text>
  <text x="20" y="2050" font-family="Arial" font-size="10">resources_macosx</text>
  <text x="20" y="2070" font-family="Arial" font-size="10">src</text>
  <text x="0" y="2090" font-family="Arial" font-size="10">time</text>
  <text x="0" y="2110" font-family="Arial" font-size="10">ms_word_manipulation</text>
  <text x="20" y="2130" font-family="Arial" font-size="10">data_out</text>
  <text x="0" y="2150" font-family="Arial" font-size="10">amqp_tutorial</text>
  <text x="0" y="2170" font-family="Arial" font-size="10">system_v_ipc_shm</text>
  <text x="0" y="2190" font-family="Arial" font-size="10">zip</text>
  <text x="0" y="2210" font-family="Arial" font-size="10">jruby_gui</text>
  <text x="20" y="2230" font-family="Arial" font-size="10">bin</text>
  <text x="0" y="2250" font-family="Arial" font-size="10">side_effects</text>
  <text x="0" y="2270" font-family="Arial" font-size="10">GeographicLib</text>
  <text x="0" y="2290" font-family="Arial" font-size="10">pg_vector</text>
  <text x="0" y="2310" font-family="Arial" font-size="10">json</text>
  <text x="0" y="2330" font-family="Arial" font-size="10">api_key_rotater</text>
  <text x="0" y="2350" font-family="Arial" font-size="10">meal_planner</text>
  <text x="0" y="2370" font-family="Arial" font-size="10">re2</text>
  <text x="0" y="2390" font-family="Arial" font-size="10">java_junk</text>
  <text x="20" y="2410" font-family="Arial" font-size="10">jruby_with_ratpack</text>
  <text x="20" y="2430" font-family="Arial" font-size="10">play_with_gradel_and_ratpack</text>
  <text x="20" y="2450" font-family="Arial" font-size="10">hello_world</text>
  <text x="20" y="2470" font-family="Arial" font-size="10">play_with_lazybones</text>
  <text x="0" y="2490" font-family="Arial" font-size="10">using_methods_as_data</text>
  <text x="0" y="2510" font-family="Arial" font-size="10">plotting</text>
  <text x="20" y="2530" font-family="Arial" font-size="10">svg_graph_examples</text>
  <text x="0" y="2550" font-family="Arial" font-size="10">ml</text>
  <text x="20" y="2570" font-family="Arial" font-size="10">tensorflow</text>
  <text x="0" y="2590" font-family="Arial" font-size="10">kafka</text>
  <text x="20" y="2610" font-family="Arial" font-size="10">config</text>
  <text x="20" y="2630" font-family="Arial" font-size="10">docker_based</text>
  <text x="0" y="2650" font-family="Arial" font-size="10">swift</text>
  <text x="20" y="2670" font-family="Arial" font-size="10">hello</text>
  <text x="0" y="2690" font-family="Arial" font-size="10">graphql</text>
  <text x="0" y="2710" font-family="Arial" font-size="10">cli_options</text>
  <text x="20" y="2730" font-family="Arial" font-size="10">tty_option</text>
  <text x="20" y="2750" font-family="Arial" font-size="10">dry-cli</text>
  <text x="0" y="2770" font-family="Arial" font-size="10">geo_stuff</text>
  <text x="0" y="2790" font-family="Arial" font-size="10">sinatra_upload</text>
  <text x="20" y="2810" font-family="Arial" font-size="10">views</text>
  <text x="0" y="2830" font-family="Arial" font-size="10">NLP</text>
  <text x="20" y="2850" font-family="Arial" font-size="10">brown</text>
  <text x="0" y="2870" font-family="Arial" font-size="10">trailblazer</text>
  <text x="0" y="2890" font-family="Arial" font-size="10">directed_graphs</text>
  <text x="0" y="2910" font-family="Arial" font-size="10">HL7</text>
  <text x="0" y="2930" font-family="Arial" font-size="10">memcached-stuff</text>
  <text x="0" y="2950" font-family="Arial" font-size="10">spanish</text>
  <text x="0" y="2970" font-family="Arial" font-size="10">ruby_misc</text>
  <text x="20" y="2990" font-family="Arial" font-size="10">table_read</text>
  <text x="20" y="3010" font-family="Arial" font-size="10">method_lookup_path</text>
  <text x="0" y="3030" font-family="Arial" font-size="10">doc</text>
  <text x="0" y="3050" font-family="Arial" font-size="10">slack</text>
  <text x="0" y="3070" font-family="Arial" font-size="10">aws</text>
  <text x="20" y="3090" font-family="Arial" font-size="10">s3</text>
  <text x="0" y="3110" font-family="Arial" font-size="10">julia</text>
  <text x="0" y="3130" font-family="Arial" font-size="10">hipchat</text>
  <text x="0" y="3150" font-family="Arial" font-size="10">monads</text>
  <text x="0" y="3170" font-family="Arial" font-size="10">user_feedback</text>
  <text x="0" y="3190" font-family="Arial" font-size="10">mqtt</text>
  <text x="0" y="3210" font-family="Arial" font-size="10">rbac_engine</text>
  <text x="20" y="3230" font-family="Arial" font-size="10">test</text>
  <text x="20" y="3250" font-family="Arial" font-size="10">bin</text>
  <text x="20" y="3270" font-family="Arial" font-size="10">lib</text>
  <text x="0" y="3290" font-family="Arial" font-size="10">ideas</text>
  <text x="0" y="3310" font-family="Arial" font-size="10">.git</text>
  <text x="20" y="3330" font-family="Arial" font-size="10">objects</text>
  <text x="20" y="3350" font-family="Arial" font-size="10">info</text>
  <text x="20" y="3370" font-family="Arial" font-size="10">logs</text>
  <text x="20" y="3390" font-family="Arial" font-size="10">hooks</text>
  <text x="20" y="3410" font-family="Arial" font-size="10">refs</text>
  <text x="0" y="3430" font-family="Arial" font-size="10">extract_words</text>
  <text x="0" y="3450" font-family="Arial" font-size="10">libsvm</text>
  <text x="20" y="3470" font-family="Arial" font-size="10">rumale_svm</text>
  <text x="0" y="3490" font-family="Arial" font-size="10">tk_gui</text>
  <text x="0" y="3510" font-family="Arial" font-size="10">py_stuff</text>
  <text x="20" y="3530" font-family="Arial" font-size="10">tornado</text>
  <text x="0" y="3550" font-family="Arial" font-size="10">classifiers</text>
  <text x="20" y="3570" font-family="Arial" font-size="10">training_data</text>
  <text x="20" y="3590" font-family="Arial" font-size="10">fasttext</text>
  <text x="0" y="3610" font-family="Arial" font-size="10">random_bible_book</text>
  <text x="0" y="3630" font-family="Arial" font-size="10">ml_junk</text>
  <text x="0" y="3650" font-family="Arial" font-size="10">elasticsearch</text>
  <text x="20" y="3670" font-family="Arial" font-size="10">elasticsearch-rails</text>
  <text x="20" y="3690" font-family="Arial" font-size="10">man_pages_example</text>
  <text x="0" y="3710" font-family="Arial" font-size="10">teachable_moment</text>
  <text x="20" y="3730" font-family="Arial" font-size="10">wordly_wise_3000_2nd_edition</text>
  <text x="0" y="3750" font-family="Arial" font-size="10">hello_lambda</text>
  <text x="20" y="3770" font-family="Arial" font-size="10">one</text>
  <text x="0" y="3790" font-family="Arial" font-size="10">openai</text>
  <text x="20" y="3810" font-family="Arial" font-size="10">prompt_engineering</text>
  <text x="20" y="3830" font-family="Arial" font-size="10">method_missing_intercept</text>
  <text x="0" y="3850" font-family="Arial" font-size="10">whenever</text>
  <text x="0" y="3870" font-family="Arial" font-size="10">twilio</text>
  <text x="0" y="3890" font-family="Arial" font-size="10">nise</text>
  <text x="20" y="3910" font-family="Arial" font-size="10">test</text>
  <text x="20" y="3930" font-family="Arial" font-size="10">bin</text>
  <text x="20" y="3950" font-family="Arial" font-size="10">examples</text>
  <text x="20" y="3970" font-family="Arial" font-size="10">lib</text>
  <text x="0" y="3990" font-family="Arial" font-size="10">event_bus</text>
  <text x="20" y="4010" font-family="Arial" font-size="10">lib</text>
  <text x="20" y="4030" font-family="Arial" font-size="10">doc</text>
  <text x="0" y="4050" font-family="Arial" font-size="10">av_capture</text>
  <text x="0" y="4070" font-family="Arial" font-size="10">misc_ruby_snippets</text>
</svg>
